<?xml version="1.0" encoding="UTF-8"?>
<svg xmlns="http://www.w3.org/2000/svg" xmlns:xlink="http://www.w3.org/1999/xlink" width="20px" height="20px" viewBox="0 0 20 20" version="1.1">
<g id="surface1">
<path style=" stroke:none;fill-rule:nonzero;fill:rgb(0%,0%,0%);fill-opacity:1;" d="M 4.804688 0.0273438 C 3.453125 0.246094 2.527344 0.710938 1.617188 1.617188 C 0.964844 2.269531 0.5625 2.90625 0.28125 3.730469 C 0.00390625 4.542969 0.0195312 4.164062 0.0195312 10 C 0.0195312 15.835938 0.00390625 15.457031 0.28125 16.269531 C 0.5625 17.09375 0.964844 17.730469 1.617188 18.382812 C 2.269531 19.035156 2.90625 19.4375 3.730469 19.71875 C 4.542969 19.996094 4.164062 19.980469 10 19.980469 C 15.835938 19.980469 15.457031 19.996094 16.269531 19.71875 C 17.09375 19.4375 17.730469 19.035156 18.382812 18.382812 C 19.035156 17.730469 19.4375 17.09375 19.71875 16.269531 C 19.996094 15.457031 19.980469 15.835938 19.980469 10 C 19.980469 4.164062 19.996094 4.542969 19.71875 3.730469 C 19.4375 2.90625 19.035156 2.269531 18.382812 1.617188 C 17.730469 0.964844 17.09375 0.5625 16.269531 0.28125 C 15.453125 0.00390625 15.902344 0.0234375 10.117188 0.015625 C 7.25 0.0117188 4.859375 0.015625 4.804688 0.0273438 Z M 15.1875 1.875 C 15.949219 2.027344 16.480469 2.308594 17.042969 2.847656 C 17.628906 3.40625 17.964844 4.015625 18.125 4.8125 C 18.199219 5.175781 18.203125 5.363281 18.203125 10 C 18.203125 14.636719 18.199219 14.824219 18.125 15.1875 C 17.964844 15.984375 17.628906 16.59375 17.042969 17.152344 C 16.480469 17.691406 15.949219 17.972656 15.1875 18.125 C 14.824219 18.199219 14.636719 18.203125 10 18.203125 C 5.363281 18.203125 5.175781 18.199219 4.8125 18.125 C 4.050781 17.972656 3.519531 17.691406 2.957031 17.152344 C 2.371094 16.59375 2.035156 15.984375 1.875 15.1875 C 1.800781 14.824219 1.796875 14.636719 1.796875 10 C 1.796875 5.363281 1.800781 5.175781 1.875 4.8125 C 2.035156 4.015625 2.371094 3.40625 2.957031 2.847656 C 3.515625 2.3125 4.046875 2.03125 4.796875 1.875 C 5.117188 1.808594 5.441406 1.800781 9.972656 1.800781 C 14.640625 1.796875 14.824219 1.800781 15.1875 1.875 Z M 15.1875 1.875 "/>
<path style=" stroke:none;fill-rule:nonzero;fill:rgb(0%,0%,0%);fill-opacity:1;" d="M 15.035156 3.371094 C 14.617188 3.492188 14.285156 3.789062 14.136719 4.175781 C 14.023438 4.476562 14.042969 4.933594 14.183594 5.210938 C 14.671875 6.203125 16.089844 6.195312 16.554688 5.203125 C 16.644531 5.011719 16.660156 4.929688 16.660156 4.628906 C 16.660156 4.234375 16.59375 4.046875 16.347656 3.757812 C 16.0625 3.425781 15.464844 3.25 15.035156 3.371094 Z M 15.035156 3.371094 "/>
<path style=" stroke:none;fill-rule:nonzero;fill:rgb(0%,0%,0%);fill-opacity:1;" d="M 9.105469 4.90625 C 8.667969 4.980469 8.023438 5.199219 7.628906 5.410156 C 6.578125 5.96875 5.859375 6.707031 5.351562 7.753906 C 4.960938 8.5625 4.863281 9.011719 4.863281 10 C 4.863281 10.988281 4.960938 11.4375 5.351562 12.246094 C 5.882812 13.339844 6.660156 14.117188 7.753906 14.648438 C 8.5625 15.039062 9.011719 15.136719 10 15.136719 C 10.988281 15.136719 11.4375 15.039062 12.246094 14.648438 C 12.914062 14.324219 13.421875 13.941406 13.875 13.417969 C 14.222656 13.019531 14.410156 12.734375 14.648438 12.246094 C 15.039062 11.4375 15.136719 10.988281 15.136719 10 C 15.136719 9.242188 15.089844 8.902344 14.914062 8.378906 C 14.808594 8.0625 14.492188 7.414062 14.308594 7.140625 C 13.515625 5.957031 12.238281 5.128906 10.859375 4.902344 C 10.402344 4.832031 9.554688 4.832031 9.105469 4.90625 Z M 10.851562 6.757812 C 12.042969 7.09375 12.90625 7.960938 13.25 9.167969 C 13.375 9.605469 13.375 10.394531 13.25 10.832031 C 12.902344 12.046875 12.046875 12.902344 10.832031 13.25 C 10.394531 13.375 9.605469 13.375 9.167969 13.25 C 7.953125 12.902344 7.097656 12.046875 6.75 10.832031 C 6.625 10.394531 6.625 9.605469 6.75 9.167969 C 7.128906 7.84375 8.136719 6.925781 9.484375 6.679688 C 9.789062 6.621094 10.53125 6.664062 10.851562 6.757812 Z M 10.851562 6.757812 "/>
</g>
</svg>
